<svg width="120" height="120" viewBox="0 0 120 120" fill="none" xmlns="http://www.w3.org/2000/svg">
<path d="M60 10C50.1109 10 40.444 12.9324 32.2215 18.4265C23.999 23.9206 17.5904 31.7295 13.806 40.8658C10.0216 50.0021 9.03148 60.0555 10.9607 69.7545C12.89 79.4536 17.652 88.3627 24.6447 95.3553C31.6373 102.348 40.5464 107.11 50.2455 109.039C59.9445 110.969 69.9979 109.978 79.1342 106.194C88.2705 102.41 96.0794 96.001 101.573 87.7785C107.068 79.5561 110 69.8891 110 60C109.985 46.7436 104.713 34.0344 95.3393 24.6607C85.9656 15.2871 73.2564 10.0146 60 10ZM60 100C52.0888 100 44.3552 97.654 37.7772 93.2588C31.1992 88.8635 26.0723 82.6164 23.0448 75.3073C20.0173 67.9983 19.2252 59.9556 20.7686 52.1964C22.312 44.4371 26.1216 37.3098 31.7157 31.7157C37.3098 26.1216 44.4372 22.312 52.1964 20.7686C59.9556 19.2252 67.9983 20.0173 75.3073 23.0448C82.6164 26.0723 88.8635 31.1992 93.2588 37.7772C97.654 44.3552 100 52.0887 100 60C99.9881 70.605 95.77 80.7722 88.2711 88.2711C80.7722 95.77 70.605 99.9881 60 100Z" fill="#FED530"/>
<path d="M45 32.2305V87.7705L89.435 60.0005L45 32.2305ZM55 50.2705L70.565 60.0005L55 69.7305V50.2705Z" fill="#FED530"/>
</svg>
