<?xml version="1.0" encoding="UTF-8" standalone="no"?>
<!-- Generator: Adobe Illustrator 19.0.0, SVG Export Plug-In . SVG Version: 6.00 Build 0)  -->

<svg
   version="1.1"
   id="Layer_1"
   x="0px"
   y="0px"
   viewBox="0 0 512.00011 368.963"
   width="16.000031"
   height="11.530113"
   xml:space="preserve"
   xmlns="http://www.w3.org/2000/svg"
   xmlns:svg="http://www.w3.org/2000/svg"><defs
   id="defs12805" />
<path
   style="fill:#ffe477"
   d="M 132.393,7.622422 H 79.981 v 21.326 h -46.01 v -21.326 H 7.623 V 361.33942 h 26.35 v -8.997 h 46.009 v 8.997 h 353.717 v -8.997 h 44.328 v 8.997 h 26.35 V 7.622422 h -26.35 v 21.326 h -44.328 v -21.326 H 221.833 Z m 345.634,53.25 V 101.81642 H 433.699 V 60.872422 Z M 433.699,174.68442 v -40.944 h 44.328 v 40.944 z m 44.328,31.924 v 40.944 h -44.328 v -40.944 z M 79.981,60.872422 V 101.81642 H 33.971 V 60.872422 Z M 33.972,174.68442 v -40.944 H 79.98 v 40.944 z m 46.009,31.924 v 40.944 h -46.01 v -40.944 z m -46.009,113.812 v -40.944 H 79.98 v 40.944 z m 399.727,0 v -40.944 h 44.328 v 40.944 z"
   id="path12740" />
<polyline
   style="fill:#fff5cc"
   points="296.365,107.554 405.285,107.554 405.285,404.445 108.395,404.445 108.395,107.554   201.505,107.554 298.604,107.554 "
   id="polyline12742"
   transform="translate(0,-71.517578)" />
<polygon
   style="fill:#cca400"
   points="175.764,212.541 175.764,299.457 297.433,299.457 297.433,278.413 337.916,292.871 337.916,219.127 297.433,233.586 297.433,212.541 "
   id="polygon12744"
   transform="translate(0,-71.517578)" />
<g
   style="opacity:0.27"
   id="g12748"
   transform="translate(0,-71.517578)">
	<path
   style="fill:#cca400"
   d="m 477.396,213.634 v 32.568 h -44.328 v -6.347 C 287.515,316.951 98.955,338.229 6.992,345.226 v 87.632 h 26.35 v -8.997 H 79.35 v 8.997 h 353.718 v -8.997 h 44.328 v 8.997 h 26.35 V 194.84 c -8.494,6.546 -17.294,12.803 -26.35,18.794 z M 79.35,391.938 H 33.342 V 350.994 H 79.35 Z m 398.046,0 h -44.328 v -40.944 h 44.328 z m 0,-72.868 h -44.328 v -40.944 h 44.328 z"
   id="path12746" />
</g>
<path
   d="M 297.433,133.40142 H 175.765 c -4.21,0 -7.623,3.412 -7.623,7.623 v 86.917 c 0,4.211 3.413,7.623 7.623,7.623 h 121.668 c 4.211,0 7.623,-3.412 7.623,-7.623 v -10.228 l 30.297,10.82 c 2.334,0.833 4.929,0.481 6.955,-0.948 2.027,-1.428 3.232,-3.751 3.232,-6.231 v -73.744 c 0,-2.479 -1.205,-4.803 -3.232,-6.231 -2.025,-1.427 -4.619,-1.783 -6.955,-0.948 l -30.297,10.82 v -10.229 c 0,-4.209 -3.413,-7.621 -7.623,-7.621 z m 32.86,25.026 v 52.11 l -30.297,-10.82 c -2.336,-0.834 -4.93,-0.48 -6.955,0.948 -2.027,1.428 -3.232,3.751 -3.232,6.231 v 13.422 H 183.387 v -71.672 H 289.81 v 13.422 c 0,2.479 1.205,4.803 3.232,6.231 2.025,1.427 4.618,1.783 6.955,0.948 z"
   id="path12750"
   style="fill:#3d3d3d;fill-opacity:1" />
<path
   d="M 100.771,36.036422 V 332.92842 c 0,4.211 3.413,7.623 7.623,7.623 h 296.891 c 4.211,0 7.623,-3.412 7.623,-7.623 V 36.036422 c 0,-4.211 -3.412,-7.623 -7.623,-7.623 h -108.92 c -4.211,0 -7.623,3.412 -7.623,7.623 0,4.211 3.412,7.623 7.623,7.623 H 397.662 V 325.30542 H 116.016 V 43.658422 h 85.488 c 4.21,0 7.623,-3.412 7.623,-7.623 0,-4.211 -3.413,-7.623 -7.623,-7.623 h -93.111 c -4.209,0.001 -7.622,3.413 -7.622,7.624 z"
   id="path12752"
   style="fill:#3d3d3d;fill-opacity:1" />
<path
   id="path12754"
   d="M 7.6230469,0 C 3.4130595,0.001 0,3.413059 0,7.623047 V 361.33984 c 0,4.211 3.4130595,7.62305 7.6230469,7.62305 H 33.972656 c 4.209988,0 7.623047,-3.41205 7.623047,-7.62305 v -1.375 h 30.761719 v 1.375 c 0,4.211 3.413059,7.62305 7.623047,7.62305 H 433.69727 c 4.21097,0 7.62304,-3.41205 7.62304,-7.62305 v -1.375 h 29.08399 v 1.375 c 0,4.211 3.41207,7.62305 7.62304,7.62305 h 26.34961 c 4.211,0 7.62305,-3.41205 7.62305,-7.62305 V 7.623047 C 512,3.413059 508.58695,0 504.37695,0 h -26.34961 c -4.21097,0 -7.62304,3.412059 -7.62304,7.623047 V 21.326172 H 441.32031 V 7.623047 C 441.32031,3.412059 437.90824,0 433.69727,0 H 221.83203 c -4.20997,0 -7.62109,3.412059 -7.62109,7.623047 0,4.210988 3.41112,7.623047 7.62109,7.623047 h 204.24414 v 13.703128 c 0,4.21097 3.41205,7.62304 7.62305,7.62304 h 44.32812 c 4.211,0 7.62305,-3.41207 7.62305,-7.62304 V 15.246094 h 11.10547 V 353.71875 h -11.10547 v -1.375 c 0,-4.211 -3.41205,-7.62305 -7.62305,-7.62305 h -44.32812 c -4.211,0 -7.62305,3.41205 -7.62305,7.62305 v 1.375 H 87.603516 v -1.375 c 0,-4.211 -3.413059,-7.62305 -7.623047,-7.62305 H 33.972656 c -4.209988,0 -7.623047,3.41205 -7.623047,7.62305 v 1.375 H 15.244141 V 15.246094 h 11.105468 v 13.703128 c 0,4.21097 3.413059,7.62304 7.623047,7.62304 h 46.007813 c 4.209988,0 7.623047,-3.41207 7.623047,-7.62304 V 15.246094 h 44.789064 c 4.20997,0 7.62304,-3.412059 7.62304,-7.623047 C 140.01562,3.412059 136.60255,0 132.39258,0 H 79.980469 C 75.770481,0 72.357422,3.412059 72.357422,7.623047 V 21.326172 H 41.59375 V 7.623047 C 41.59375,3.412059 38.180691,0 33.970703,0 Z"
   style="fill:#3d3d3d;fill-opacity:1" />
<path
   d="m 426.076,247.55242 c 0,4.211 3.412,7.623 7.623,7.623 h 44.328 c 4.211,0 7.623,-3.412 7.623,-7.623 v -40.944 c 0,-4.211 -3.412,-7.623 -7.623,-7.623 h -44.328 c -4.211,0 -7.623,3.412 -7.623,7.623 z m 15.245,-33.321 h 29.083 v 25.699 h -29.083 z"
   id="path12756"
   style="fill:#3d3d3d;fill-opacity:1" />
<path
   d="m 433.699,109.43842 h 44.328 c 4.211,0 7.623,-3.412 7.623,-7.623 V 60.871422 c 0,-4.211 -3.412,-7.623 -7.623,-7.623 h -44.328 c -4.211,0 -7.623,3.412 -7.623,7.623 v 40.943998 c 0,4.211 3.412,7.623 7.623,7.623 z m 7.622,-40.943998 h 29.083 v 25.699 h -29.083 z"
   id="path12758"
   style="fill:#3d3d3d;fill-opacity:1" />
<path
   d="m 426.076,320.41942 c 0,4.211 3.412,7.623 7.623,7.623 h 44.328 c 4.211,0 7.623,-3.412 7.623,-7.623 v -40.943 c 0,-4.211 -3.412,-7.623 -7.623,-7.623 h -44.328 c -4.211,0 -7.623,3.412 -7.623,7.623 z m 15.245,-33.32 h 29.083 v 25.698 h -29.083 z"
   id="path12760"
   style="fill:#3d3d3d;fill-opacity:1" />
<path
   d="m 87.603,133.74042 c 0,-4.211 -3.413,-7.623 -7.623,-7.623 H 33.972 c -4.21,0 -7.623,3.412 -7.623,7.623 v 40.944 c 0,4.211 3.413,7.623 7.623,7.623 H 79.98 c 4.21,0 7.623,-3.412 7.623,-7.623 z m -15.245,33.322 H 41.594 v -25.699 h 30.763 v 25.699 z"
   id="path12762"
   style="fill:#3d3d3d;fill-opacity:1" />
<path
   d="m 426.076,174.68442 c 0,4.211 3.412,7.623 7.623,7.623 h 44.328 c 4.211,0 7.623,-3.412 7.623,-7.623 v -40.944 c 0,-4.211 -3.412,-7.623 -7.623,-7.623 h -44.328 c -4.211,0 -7.623,3.412 -7.623,7.623 z m 15.245,-33.321 h 29.083 v 25.699 h -29.083 z"
   id="path12764"
   style="fill:#3d3d3d;fill-opacity:1" />
<path
   d="m 87.603,60.871422 c 0,-4.211 -3.413,-7.623 -7.623,-7.623 H 33.972 c -4.21,0 -7.623,3.412 -7.623,7.623 v 40.943998 c 0,4.211 3.413,7.623 7.623,7.623 H 79.98 c 4.21,0 7.623,-3.412 7.623,-7.623 z m -15.245,33.322 H 41.594 v -25.699 h 30.763 v 25.699 z"
   id="path12766"
   style="fill:#3d3d3d;fill-opacity:1" />
<path
   d="M 79.98,271.85342 H 33.972 c -4.21,0 -7.623,3.412 -7.623,7.623 v 40.943 c 0,4.211 3.413,7.623 7.623,7.623 H 79.98 c 4.21,0 7.623,-3.412 7.623,-7.623 v -40.943 c 0,-4.21 -3.413,-7.623 -7.623,-7.623 z m -7.622,40.943 H 41.594 v -25.698 h 30.763 v 25.698 z"
   id="path12768"
   style="fill:#3d3d3d;fill-opacity:1" />
<path
   d="m 87.603,206.60842 c 0,-4.211 -3.413,-7.623 -7.623,-7.623 H 33.972 c -4.21,0 -7.623,3.412 -7.623,7.623 v 40.944 c 0,4.211 3.413,7.623 7.623,7.623 H 79.98 c 4.21,0 7.623,-3.412 7.623,-7.623 z m -15.245,33.321 H 41.594 v -25.699 h 30.763 v 25.699 z"
   id="path12770"
   style="fill:#3d3d3d;fill-opacity:1" />
<g
   id="g12772"
   transform="translate(0,-71.517578)">
</g>
<g
   id="g12774"
   transform="translate(0,-71.517578)">
</g>
<g
   id="g12776"
   transform="translate(0,-71.517578)">
</g>
<g
   id="g12778"
   transform="translate(0,-71.517578)">
</g>
<g
   id="g12780"
   transform="translate(0,-71.517578)">
</g>
<g
   id="g12782"
   transform="translate(0,-71.517578)">
</g>
<g
   id="g12784"
   transform="translate(0,-71.517578)">
</g>
<g
   id="g12786"
   transform="translate(0,-71.517578)">
</g>
<g
   id="g12788"
   transform="translate(0,-71.517578)">
</g>
<g
   id="g12790"
   transform="translate(0,-71.517578)">
</g>
<g
   id="g12792"
   transform="translate(0,-71.517578)">
</g>
<g
   id="g12794"
   transform="translate(0,-71.517578)">
</g>
<g
   id="g12796"
   transform="translate(0,-71.517578)">
</g>
<g
   id="g12798"
   transform="translate(0,-71.517578)">
</g>
<g
   id="g12800"
   transform="translate(0,-71.517578)">
</g>
<g
   aria-label="Movies"
   id="text14800"
   style="font-weight:600;font-size:42.6667px;font-family:FreeSans;-inkscape-font-specification:'FreeSans, Semi-Bold';fill:#3d3d3d;stroke:#000000;stroke-width:0.988"
   transform="translate(-40.074074,-72.653301)"><path
     d="m 217.06764,337.55726 v 31.808 h -8.4 v -40.824 h 12.544 l 7.392,32.48 7.168,-32.48 h 12.656 v 40.824 h -8.4 v -31.808 l -7.224,31.808 h -8.4 z"
     style="font-size:56px;stroke:#3d3d3d"
     id="path16471" /><path
     d="m 270.04358,338.62126 q 7.112,0 11.032,4.312 3.976,4.256 3.976,11.928 0,7.28 -4.032,11.536 -4.032,4.256 -10.92,4.256 -7,0 -10.976,-4.256 -3.976,-4.312 -3.976,-11.76 0,-7.448 3.976,-11.704 3.976,-4.312 10.92,-4.312 z m 0.056,6.328 q -3.192,0 -5.152,2.688 -1.96,2.688 -1.96,7 0,4.312 1.96,7 1.96,2.688 5.152,2.688 3.136,0 5.096,-2.632 2.016,-2.688 2.016,-6.944 0,-4.48 -1.96,-7.112 -1.904,-2.688 -5.152,-2.688 z"
     style="font-size:56px;stroke:#3d3d3d"
     id="path16473" /><path
     d="m 306.66749,369.36526 h -8.232 l -10.584,-30.24 h 8.288 l 6.552,22.12 6.104,-22.12 h 8.288 z"
     style="font-size:56px;stroke:#3d3d3d"
     id="path16475" /><path
     d="m 329.40348,339.12526 v 30.24 h -7.84 v -30.24 z m 0,-10.584 v 7 h -7.84 v -7 z"
     style="font-size:56px;stroke:#3d3d3d"
     id="path16477" /><path
     d="m 349.56341,338.62126 q 1.96,0 3.808,0.448 1.848,0.448 3.752,1.624 1.96,1.176 3.36,3.024 1.456,1.792 2.352,4.816 0.896,2.968 0.896,6.832 0,0.672 -0.056,1.344 h -20.272 q 0.056,1.736 0.28,3.024 0.28,1.232 0.896,2.464 0.672,1.176 1.904,1.848 1.288,0.616 3.192,0.616 4.48,0 5.992,-3.808 h 7.728 q -1.288,4.48 -5.096,7.168 -3.808,2.632 -8.904,2.632 -6.44,0 -10.136,-4.144 -3.696,-4.2 -3.696,-11.48 0,-7.616 3.752,-11.984 3.752,-4.424 10.248,-4.424 z m 5.992,12.88 q -0.28,-3.304 -1.848,-5.096 -1.512,-1.792 -4.256,-1.792 -5.152,0 -5.936,6.888 z"
     style="font-size:56px;stroke:#3d3d3d"
     id="path16479" /><path
     d="m 375.32331,360.57326 q 0.392,1.904 1.568,2.912 1.232,1.008 4.592,1.008 2.744,0 4.256,-0.784 1.568,-0.784 1.568,-2.184 0,-0.896 -0.616,-1.456 -0.56,-0.56 -2.016,-1.008 l -9.352,-2.912 q -0.056,0 -0.672,-0.168 -0.616,-0.224 -0.896,-0.336 -0.224,-0.112 -0.896,-0.336 -0.672,-0.28 -1.064,-0.56 -0.336,-0.28 -0.896,-0.672 -0.56,-0.448 -0.896,-0.952 -0.28,-0.504 -0.616,-1.12 -0.336,-0.672 -0.504,-1.512 -0.168,-0.84 -0.168,-1.792 0,-4.648 3.304,-7.336 3.36,-2.744 9.128,-2.744 6.104,0 9.576,2.744 3.472,2.688 3.584,7.504 h -7.56 q -0.056,-4.088 -5.656,-4.088 -2.072,0 -3.304,0.784 -1.232,0.728 -1.232,2.016 0,0.896 0.56,1.4 0.56,0.448 2.184,0.952 l 9.912,2.856 q 5.936,1.736 5.936,7.616 0,1.736 -0.616,3.416 -0.616,1.624 -2.016,3.248 -1.344,1.624 -4.088,2.576 -2.744,1.008 -6.496,1.008 -13.944,0 -14.28,-10.08 z"
     style="font-size:56px;stroke:#3d3d3d"
     id="path16481" /></g></svg>
